<svg viewBox="0 0 100 100" xmlns="http://www.w3.org/2000/svg">
  <text x="50" y="10" text-anchor="middle" font-size="16" font-weight="900" fill="#4a3518" stroke="#fff8ef" stroke-width="2" paint-order="stroke" font-family="'JetBrains Mono', monospace">N</text>
  <circle cx="50" cy="50" r="44" fill="none" stroke="#5a4526" stroke-width="4"/>
  <circle cx="50" cy="50" r="38" fill="none" stroke="#6f5630" stroke-width="1.5"/>
  <g stroke="#6b522e" stroke-width="1.3" stroke-linecap="round">
    <line x1="50" y1="12" x2="50" y2="22"/>
    <line x1="50" y1="78" x2="50" y2="88"/>
    <line x1="12" y1="50" x2="22" y2="50"/>
    <line x1="78" y1="50" x2="88" y2="50"/>
    <line x1="24" y1="24" x2="31" y2="31"/>
    <line x1="76" y1="24" x2="69" y2="31"/>
    <line x1="24" y1="76" x2="31" y2="69"/>
    <line x1="76" y1="76" x2="69" y2="69"/>
  </g>
  <g fill="#5a4526" opacity="0.95">
    <polygon points="50,4 56,34 50,28 44,34"/>
    <polygon points="96,50 66,56 72,50 66,44"/>
    <polygon points="50,96 56,66 50,72 44,66"/>
    <polygon points="4,50 34,56 28,50 34,44"/>
  </g>
  <g fill="#745b34" opacity="0.9">
    <polygon points="76,24 61,43 64,36 57,39"/>
    <polygon points="76,76 57,61 64,64 61,57"/>
    <polygon points="24,76 39,57 36,64 43,61"/>
    <polygon points="24,24 43,39 36,36 39,43"/>
  </g>
  <circle cx="50" cy="50" r="16" fill="none" stroke="#5a4526" stroke-width="3"/>
  <circle cx="50" cy="50" r="7" fill="#5a4526"/>
</svg>
